# Blender v2.79 (sub 0) OBJ File: ''
# www.blender.org
mtllib cylinder.mtl
o Cylinder
v 0.000000 -1.000000 -1.000000
v 0.000000 1.000000 -1.000000
v 0.195090 -1.000000 -0.980785
v 0.195090 1.000000 -0.980785
v 0.382683 -1.000000 -0.923880
v 0.382683 1.000000 -0.923880
v 0.555570 -1.000000 -0.831470
v 0.555570 1.000000 -0.831470
v 0.707107 -1.000000 -0.707107
v 0.707107 1.000000 -0.707107
v 0.831470 -1.000000 -0.555570
v 0.831470 1.000000 -0.555570
v 0.923880 -1.000000 -0.382683
v 0.923880 1.000000 -0.382683
v 0.980785 -1.000000 -0.195090
v 0.980785 1.000000 -0.195090
v 1.000000 -1.000000 -0.000000
v 1.000000 1.000000 -0.000000
v 0.980785 -1.000000 0.195090
v 0.980785 1.000000 0.195090
v 0.923880 -1.000000 0.382683
v 0.923880 1.000000 0.382683
v 0.831470 -1.000000 0.555570
v 0.831470 1.000000 0.555570
v 0.707107 -1.000000 0.707107
v 0.707107 1.000000 0.707107
v 0.555570 -1.000000 0.831470
v 0.555570 1.000000 0.831470
v 0.382683 -1.000000 0.923880
v 0.382683 1.000000 0.923880
v 0.195090 -1.000000 0.980785
v 0.195090 1.000000 0.980785
v -0.000000 -1.000000 1.000000
v -0.000000 1.000000 1.000000
v -0.195091 -1.000000 0.980785
v -0.195091 1.000000 0.980785
v -0.382684 -1.000000 0.923879
v -0.382684 1.000000 0.923879
v -0.555571 -1.000000 0.831469
v -0.555571 1.000000 0.831469
v -0.707107 -1.000000 0.707106
v -0.707107 1.000000 0.707106
v -0.831470 -1.000000 0.555570
v -0.831470 1.000000 0.555570
v -0.923880 -1.000000 0.382683
v -0.923880 1.000000 0.382683
v -0.980785 -1.000000 0.195089
v -0.980785 1.000000 0.195089
v -1.000000 -1.000000 -0.000001
v -1.000000 1.000000 -0.000001
v -0.980785 -1.000000 -0.195091
v -0.980785 1.000000 -0.195091
v -0.923879 -1.000000 -0.382684
v -0.923879 1.000000 -0.382684
v -0.831469 -1.000000 -0.555571
v -0.831469 1.000000 -0.555571
v -0.707106 -1.000000 -0.707108
v -0.707106 1.000000 -0.707108
v -0.555569 -1.000000 -0.831470
v -0.555569 1.000000 -0.831470
v -0.382682 -1.000000 -0.923880
v -0.382682 1.000000 -0.923880
v -0.195089 -1.000000 -0.980786
v -0.195089 1.000000 -0.980786
vt 0.406250 0.000000
vt 0.406250 1.000000
vt 0.312500 1.000000
vt 0.312500 0.000000
vt 0.218750 1.000000
vt 0.218750 0.000000
vt 0.125000 1.000000
vt 0.125000 0.000000
vt 0.031250 1.000000
vt 0.031250 0.000000
vt -0.062500 1.000000
vt -0.062500 0.000000
vt -0.156250 1.000000
vt -0.156250 0.000000
vt -0.250000 1.000000
vt -0.250000 0.000000
vt -0.343750 1.000000
vt -0.343750 0.000000
vt -0.437500 1.000000
vt -0.437500 0.000000
vt -0.531250 1.000000
vt -0.531250 0.000000
vt -0.625000 1.000000
vt -0.625000 0.000000
vt -0.718750 1.000000
vt -0.718750 0.000000
vt -0.812500 1.000000
vt -0.812500 0.000000
vt -0.906250 1.000000
vt -0.906250 0.000000
vt -1.000000 1.000000
vt -1.000000 0.000000
vt 2.000000 0.000000
vt 2.000000 1.000000
vt 1.906250 1.000000
vt 1.906250 0.000000
vt 1.812500 1.000000
vt 1.812500 0.000000
vt 1.718750 1.000000
vt 1.718750 0.000000
vt 1.625000 1.000000
vt 1.625000 0.000000
vt 1.531250 1.000000
vt 1.531250 0.000000
vt 1.437500 1.000000
vt 1.437500 0.000000
vt 1.343750 1.000000
vt 1.343750 0.000000
vt 1.250000 1.000000
vt 1.250000 0.000000
vt 1.156250 1.000000
vt 1.156250 0.000000
vt 1.062500 1.000000
vt 1.062500 0.000000
vt 0.968750 1.000000
vt 0.968750 0.000000
vt 0.875000 1.000000
vt 0.875000 0.000000
vt 0.781249 1.000000
vt 0.781249 0.000000
vt 0.687499 1.000000
vt 0.687499 0.000000
vt 0.593749 1.000000
vt 0.593749 0.000000
vt 0.499999 1.000000
vt 0.499999 0.000000
vn 0.0000 0.0000 -1.0000
vn 0.1951 0.0000 -0.9808
vn 0.3827 0.0000 -0.9239
vn 0.5556 0.0000 -0.8314
vn 0.7071 0.0000 -0.7071
vn 0.8314 0.0000 -0.5556
vn 0.9239 0.0000 -0.3827
vn 0.9808 0.0000 -0.1951
vn 1.0000 0.0000 0.0000
vn 0.9808 0.0000 0.1951
vn 0.9239 0.0000 0.3827
vn 0.8314 0.0000 0.5556
vn 0.7071 0.0000 0.7071
vn 0.5556 0.0000 0.8314
vn 0.3827 0.0000 0.9239
vn 0.1951 0.0000 0.9808
vn 0.0000 0.0000 1.0000
vn -0.1951 0.0000 0.9808
vn -0.3827 0.0000 0.9239
vn -0.5556 0.0000 0.8314
vn -0.7071 0.0000 0.7071
vn -0.8314 0.0000 0.5556
vn -0.9239 0.0000 0.3827
vn -0.9808 0.0000 0.1951
vn -1.0000 0.0000 0.0000
vn -0.9808 0.0000 -0.1951
vn -0.9239 0.0000 -0.3827
vn -0.8314 0.0000 -0.5556
vn -0.7071 0.0000 -0.7071
vn -0.5556 0.0000 -0.8314
vn -0.3827 0.0000 -0.9239
vn -0.1951 0.0000 -0.9808
usemtl Base
s 1
f 1/1/1 2/2/1 4/3/2 3/4/2
f 3/4/2 4/3/2 6/5/3 5/6/3
f 5/6/3 6/5/3 8/7/4 7/8/4
f 7/8/4 8/7/4 10/9/5 9/10/5
f 9/10/5 10/9/5 12/11/6 11/12/6
f 11/12/6 12/11/6 14/13/7 13/14/7
f 13/14/7 14/13/7 16/15/8 15/16/8
f 15/16/8 16/15/8 18/17/9 17/18/9
f 17/18/9 18/17/9 20/19/10 19/20/10
f 19/20/10 20/19/10 22/21/11 21/22/11
f 21/22/11 22/21/11 24/23/12 23/24/12
f 23/24/12 24/23/12 26/25/13 25/26/13
f 25/26/13 26/25/13 28/27/14 27/28/14
f 27/28/14 28/27/14 30/29/15 29/30/15
f 29/30/15 30/29/15 32/31/16 31/32/16
f 31/33/16 32/34/16 34/35/17 33/36/17
f 33/36/17 34/35/17 36/37/18 35/38/18
f 35/38/18 36/37/18 38/39/19 37/40/19
f 37/40/19 38/39/19 40/41/20 39/42/20
f 39/42/20 40/41/20 42/43/21 41/44/21
f 41/44/21 42/43/21 44/45/22 43/46/22
f 43/46/22 44/45/22 46/47/23 45/48/23
f 45/48/23 46/47/23 48/49/24 47/50/24
f 47/50/24 48/49/24 50/51/25 49/52/25
f 49/52/25 50/51/25 52/53/26 51/54/26
f 51/54/26 52/53/26 54/55/27 53/56/27
f 53/56/27 54/55/27 56/57/28 55/58/28
f 55/58/28 56/57/28 58/59/29 57/60/29
f 57/60/29 58/59/29 60/61/30 59/62/30
f 59/62/30 60/61/30 62/63/31 61/64/31
f 61/64/31 62/63/31 64/65/32 63/66/32
f 63/66/32 64/65/32 2/2/1 1/1/1
